<svg width="169" height="90" viewBox="0 0 169 90" fill="none" xmlns="http://www.w3.org/2000/svg">
<g clip-path="url(#clip0_41_102)">
<mask id="mask0_41_102" style="mask-type:luminance" maskUnits="userSpaceOnUse" x="0" y="0" width="169" height="90">
<path d="M0 90H169V0H0V90Z" fill="white"/>
</mask>
<g mask="url(#mask0_41_102)">
<path d="M106.622 1.59905C104.058 0.996708 101.481 0.4255 98.8171 0.037361C98.7172 0.0220015 98.6053 0.0157746 98.5058 0C94.7216 2.78796 91.2361 5.86483 88.0994 9.17087C91.5724 8.66193 95.1202 8.33897 98.7422 8.20862C111.389 7.74617 123.415 9.81388 134.269 13.7534C126.439 8.373 116.991 4.13212 106.622 1.59905Z" fill="#402F25"/>
<path d="M100.983 29.3752C115.298 22.6353 130.286 19.7884 144.427 20.4094C132.253 15.0448 118.28 12.2224 103.51 12.7566C96.2281 13.0236 89.1947 14.0917 82.5347 15.8489C79.2111 20.3006 76.4663 25.0878 74.3811 30.1261C77.5928 33.2778 81.097 36.245 84.8687 38.9807C89.7861 35.3513 95.1695 32.1162 100.983 29.3752Z" fill="#402F25"/>
<path d="M82.535 15.8489C76.996 17.308 71.7054 19.245 66.7261 21.6045C71.7674 28.0123 77.8424 33.8892 84.8633 38.9807H84.8691C81.0973 36.2421 77.5932 33.2778 74.3811 30.1266C76.4663 25.0907 79.2115 20.3035 82.535 15.8489Z" fill="#402F25"/>
<path d="M84.8754 38.9837C81.1037 36.2518 77.5928 33.2774 74.3812 30.1262C71.4001 37.3228 69.7759 45.0312 69.751 53.0289C74.1199 47.9092 79.1866 43.1905 84.8754 38.9837Z" fill="#402F25"/>
<path d="M156.066 82.4872C155.891 82.4909 155.717 82.4967 155.537 82.4967C148.273 82.4967 143.008 77.8586 143.008 71.4694V71.3266C143.008 65.214 148.286 60.4268 155.02 60.4268C155.381 60.4268 155.73 60.4388 156.066 60.4579V53.1152C155.754 53.1028 155.431 53.1028 155.107 53.1028C141.912 53.1028 131.954 60.9918 131.954 71.4694V71.6031C131.954 81.8234 142.049 89.8298 154.939 89.8298C155.331 89.8298 155.692 89.8203 156.066 89.8107V82.4872Z" fill="#402F25"/>
<path d="M22.6631 67.1011C14.8766 65.444 13.7814 64.649 13.7814 62.1936V62.0819C13.7814 60.2715 15.7792 58.8311 19.5726 58.8311C21.508 58.8311 24.0355 59.3562 25.8095 60.0113V52.1808C24.1599 51.8956 21.627 51.5693 19.7037 51.5693C10.4982 51.5693 3.94087 56.0552 3.94087 62.8391V62.9416C3.94087 70.3582 9.78825 72.4383 18.8664 74.3599C26.3945 75.9619 27.104 77.0296 27.104 79.1127V79.2185C27.104 81.407 24.6576 82.7392 20.6029 82.7392C15.4555 82.7392 12.0445 80.979 7.99267 78.2027L2.13281 84.0211C7.53868 88.0224 13.5887 90.0005 20.4098 90.0005C30.1288 90.0005 36.9504 85.8372 36.9504 78.4177V78.3115C36.9504 71.7982 31.7967 69.0763 22.6631 67.1011Z" fill="#402F25"/>
<path d="M52.8833 56.9187C42.776 56.9187 35.7173 64.1211 35.7173 72.8606V72.9723C35.7173 82.3441 43.4231 88.8017 53.8541 88.8017C54.1533 88.8017 55.1241 88.7619 55.4229 88.7552V81.7733C55.174 81.7828 54.2403 81.8293 53.9793 81.8293C49.5726 81.8293 46.4662 79.7774 45.4896 75.8312H69.4454C69.5016 75.0272 69.5699 74.5149 69.5699 73.6552V73.5464C69.5699 64.86 64.4728 56.9187 52.8833 56.9187ZM45.3652 70.4077C46.1425 66.4649 48.8007 63.8882 52.8833 63.8882C57.0225 63.8882 59.6178 66.518 60.2029 70.4077H45.3652Z" fill="#402F25"/>
<path d="M100.809 72.0219C100.809 63.7361 95.7301 57.2693 84.9874 57.2693C74.2319 57.2693 69.1531 63.7361 69.1531 72.0219V88.2374H79.106V71.4233C79.2861 68.3556 80.4933 64.7332 84.9874 64.7332C89.4683 64.7332 90.7757 68.3556 90.9501 71.4233V88.2374H100.809V72.0219Z" fill="#402F25"/>
<path d="M123.04 77.3387C122.183 81.8162 117.55 82.487 116.5 82.5422C109.007 82.9362 108.741 77.8252 111.26 76.2681C114.646 74.1742 123.07 75.3515 123.07 75.3515C123.07 75.6545 123.15 76.4171 123.04 77.3387ZM116.992 57.0928C116.556 57.0928 115.05 57.0986 114.638 57.1111V64.5218C116.556 64.5401 119.182 64.8626 120.352 65.4778C122.071 66.3807 122.963 67.9021 123.006 69.9628C120.661 69.6884 118.003 69.5016 115.698 69.4427C106.298 69.2019 101.65 72.3028 100.716 77.266C100.698 77.3586 100.681 77.4528 100.665 77.5475C100.66 77.5794 100.655 77.6114 100.65 77.6438C100.577 78.1179 100.535 78.6156 100.535 79.1436V79.2557C100.535 85.3219 105.912 88.6341 112.448 88.6341C117.247 88.6341 120.552 87.0853 122.941 84.7444V88.2742H132.464V70.2899C132.464 62.0004 127.734 57.0928 116.992 57.0928Z" fill="#402F25"/>
</g>
</g>
<defs>
<clipPath id="clip0_41_102">
<rect width="169" height="90" fill="white"/>
</clipPath>
</defs>
</svg>
