<svg width="170" height="90" viewBox="0 0 170 90" fill="none" xmlns="http://www.w3.org/2000/svg">
<g clip-path="url(#clip0_8_358)">
<mask id="mask0_8_358" style="mask-type:luminance" maskUnits="userSpaceOnUse" x="0" y="0" width="170" height="90">
<path d="M0.5 90H169.5V0H0.5V90Z" fill="white"/>
</mask>
<g mask="url(#mask0_8_358)">
<path d="M107.122 1.59905C104.558 0.996708 101.981 0.4255 99.3173 0.037361C99.2174 0.0220015 99.1055 0.0157746 99.006 0C95.2218 2.78796 91.7363 5.86483 88.5996 9.17087C92.0726 8.66193 95.6204 8.33897 99.2424 8.20862C111.889 7.74617 123.915 9.81388 134.769 13.7534C126.939 8.373 117.491 4.13212 107.122 1.59905Z" fill="#402F25"/>
<path d="M101.483 29.3752C115.798 22.6353 130.786 19.7884 144.927 20.4094C132.753 15.0448 118.78 12.2224 104.01 12.7566C96.7283 13.0236 89.6949 14.0917 83.0349 15.8489C79.7113 20.3006 76.9665 25.0878 74.8813 30.1261C78.093 33.2778 81.5972 36.245 85.3689 38.9807C90.2863 35.3513 95.6697 32.1162 101.483 29.3752Z" fill="#402F25"/>
<path d="M83.035 15.8491C77.496 17.3082 72.2054 19.2452 67.2261 21.6047C72.2674 28.0125 78.3424 33.8894 85.3633 38.9809H85.3691C81.5973 36.2423 78.0932 33.278 74.8811 30.1268C76.9663 25.0909 79.7115 20.3037 83.035 15.8491Z" fill="#402F25"/>
<path d="M85.3754 38.9835C81.6037 36.2516 78.0928 33.2772 74.8812 30.126C71.9001 37.3226 70.2759 45.031 70.251 53.0287C74.6199 47.909 79.6866 43.1903 85.3754 38.9835Z" fill="#402F25"/>
<path d="M156.566 82.4874C156.391 82.4911 156.217 82.4969 156.037 82.4969C148.773 82.4969 143.508 77.8588 143.508 71.4696V71.3268C143.508 65.2142 148.786 60.427 155.52 60.427C155.881 60.427 156.23 60.439 156.566 60.4581V53.1154C156.254 53.103 155.931 53.103 155.607 53.103C142.412 53.103 132.454 60.992 132.454 71.4696V71.6033C132.454 81.8236 142.549 89.83 155.439 89.83C155.831 89.83 156.192 89.8205 156.566 89.8109V82.4874Z" fill="#402F25"/>
<path d="M23.1631 67.1011C15.3766 65.444 14.2814 64.649 14.2814 62.1936V62.0819C14.2814 60.2715 16.2792 58.8311 20.0726 58.8311C22.008 58.8311 24.5355 59.3562 26.3095 60.0113V52.1808C24.6599 51.8956 22.127 51.5693 20.2037 51.5693C10.9982 51.5693 4.44087 56.0552 4.44087 62.8391V62.9416C4.44087 70.3582 10.2883 72.4383 19.3664 74.3599C26.8945 75.9619 27.604 77.0296 27.604 79.1127V79.2185C27.604 81.407 25.1576 82.7392 21.1029 82.7392C15.9555 82.7392 12.5445 80.979 8.49267 78.2027L2.63281 84.0211C8.03868 88.0224 14.0887 90.0005 20.9098 90.0005C30.6288 90.0005 37.4504 85.8372 37.4504 78.4177V78.3115C37.4504 71.7982 32.2967 69.0763 23.1631 67.1011Z" fill="#402F25"/>
<path d="M53.3833 56.9185C43.276 56.9185 36.2173 64.1209 36.2173 72.8604V72.9721C36.2173 82.3439 43.9231 88.8015 54.3541 88.8015C54.6533 88.8015 55.6241 88.7617 55.9229 88.755V81.7731C55.674 81.7826 54.7403 81.8291 54.4793 81.8291C50.0726 81.8291 46.9662 79.7772 45.9896 75.831H69.9454C70.0016 75.027 70.0699 74.5147 70.0699 73.655V73.5462C70.0699 64.8598 64.9728 56.9185 53.3833 56.9185ZM45.8652 70.4075C46.6425 66.4647 49.3007 63.888 53.3833 63.888C57.5225 63.888 60.1178 66.5178 60.7029 70.4075H45.8652Z" fill="#402F25"/>
<path d="M101.309 72.0216C101.309 63.7358 96.2303 57.269 85.4876 57.269C74.7321 57.269 69.6533 63.7358 69.6533 72.0216V88.2371H79.6062V71.423C79.7863 68.3553 80.9935 64.7329 85.4876 64.7329C89.9685 64.7329 91.2759 68.3553 91.4503 71.423V88.2371H101.309V72.0216Z" fill="#402F25"/>
<path d="M123.54 77.3387C122.683 81.8162 118.05 82.487 117 82.5422C109.507 82.9362 109.241 77.8252 111.76 76.2681C115.146 74.1742 123.57 75.3515 123.57 75.3515C123.57 75.6545 123.65 76.4171 123.54 77.3387ZM117.492 57.0928C117.056 57.0928 115.55 57.0986 115.138 57.1111V64.5218C117.056 64.5401 119.682 64.8626 120.852 65.4778C122.571 66.3807 123.463 67.9021 123.506 69.9628C121.161 69.6884 118.503 69.5016 116.198 69.4427C106.798 69.2019 102.15 72.3028 101.216 77.266C101.198 77.3586 101.181 77.4528 101.165 77.5475C101.16 77.5794 101.155 77.6114 101.15 77.6438C101.077 78.1179 101.035 78.6156 101.035 79.1436V79.2557C101.035 85.3219 106.412 88.6341 112.948 88.6341C117.747 88.6341 121.052 87.0853 123.441 84.7444V88.2742H132.964V70.2899C132.964 62.0004 128.234 57.0928 117.492 57.0928Z" fill="#402F25"/>
</g>
</g>
<defs>
<clipPath id="clip0_8_358">
<rect width="169" height="90" fill="white" transform="translate(0.5)"/>
</clipPath>
</defs>
</svg>
